<svg width="128" height="128" viewBox="0 0 128 128" fill="none" xmlns="http://www.w3.org/2000/svg">
<path fill-rule="evenodd" clip-rule="evenodd" d="M11 0C4.9248 0 0 4.92487 0 11V117C0 123.075 4.9248 128 11 128H117C123.075 128 128 123.075 128 117V11C128 4.92487 123.075 0 117 0H11ZM87.4783 79.9643C90.0232 77.966 93.1577 76.8813 96.3845 76.8822C99.2751 76.8822 102.101 77.7456 104.504 79.3631C106.908 80.9806 108.781 83.2796 109.887 85.9695C110.994 88.6593 111.283 91.6191 110.719 94.4746C110.155 97.3301 108.763 99.9531 106.719 102.012C104.675 104.07 102.071 105.472 99.2358 106.04C96.4009 106.608 93.4622 106.317 90.7915 105.203C88.1208 104.089 85.8384 102.202 84.2324 99.7811C82.6265 97.3603 81.7693 94.5142 81.7693 91.6028C81.7612 89.5938 82.1655 87.6048 82.9568 85.7605L72.4062 77.4802C69.9885 79.369 67.042 80.4432 63.9841 80.5505C60.9263 80.6579 57.9126 79.7929 55.3701 78.0783L43.6323 88.5667C44.6799 90.6485 45.2273 92.949 45.2307 95.2829C45.23 98.565 44.1401 101.753 42.1345 104.34C40.1289 106.926 37.3225 108.764 34.1611 109.56C31 110.356 27.665 110.066 24.6865 108.734C21.708 107.403 19.2568 105.107 17.7222 102.212C16.1875 99.3165 15.6577 95.9876 16.2168 92.7541C16.7756 89.5206 18.3916 86.5681 20.8076 84.3656C23.2236 82.1631 26.301 80.837 29.551 80.598C32.801 80.359 36.0371 81.2208 38.7451 83.0464L50.4832 72.558C49.4355 70.4762 48.8879 68.1757 48.8845 65.8418C48.8787 63.6281 49.3733 61.4421 50.3308 59.4495C51.2883 57.4569 52.6836 55.7101 54.4111 54.3414L51.3054 47.2571C50.5027 47.3659 49.6943 47.4273 48.8845 47.4411C45.9939 47.4411 43.1682 46.5778 40.7646 44.9603C38.3613 43.3427 36.488 41.0437 35.3818 38.3539C34.2756 35.664 33.9861 32.7042 34.55 29.8487C35.114 26.9932 36.5061 24.3703 38.55 22.3116C40.594 20.2528 43.1982 18.8509 46.0332 18.2829C48.8684 17.7149 51.8071 18.0064 54.4778 19.1205C57.1482 20.2347 59.4309 22.1215 61.0369 24.5423C62.6428 26.963 63.5 29.8091 63.5 32.7206C63.5059 34.9342 63.0115 37.1202 62.054 39.1128C61.0964 41.1054 59.7009 42.8523 57.9736 44.221L61.0793 51.3053C61.8821 51.1965 62.6902 51.135 63.5 51.1212C65.9351 51.1214 68.3311 51.7361 70.4695 52.9094C72.6077 54.0827 74.4199 55.777 75.7405 57.8375L81.8149 55.8134C81.7769 55.4775 81.7617 55.1394 81.7693 54.8014C81.7629 51.2751 83.0178 47.8645 85.3037 45.1937C87.5898 42.5229 90.7544 40.7705 94.218 40.2572C97.6819 39.7439 101.213 40.5041 104.166 42.3985C107.119 44.2929 109.296 47.195 110.299 50.5736C111.301 53.9522 111.062 57.5815 109.625 60.7972C108.189 64.0129 105.65 66.6 102.475 68.0851C99.2996 69.5702 95.6995 69.854 92.3333 68.8845C88.967 67.9151 86.0601 65.7571 84.1443 62.8057L78.0698 64.8298C78.1077 65.1657 78.123 65.5038 78.1155 65.8418C78.1233 67.8508 77.719 69.8398 76.928 71.684L87.4783 79.9643Z" fill="#6CC3C5"/>
</svg>
