<svg width="50" height="50" viewBox="0 0 50 50" fill="none" xmlns="http://www.w3.org/2000/svg">
<path fill-rule="evenodd" clip-rule="evenodd" d="M25 0C11.1932 0 0 11.1932 0 25C0 38.8068 11.1932 50 25 50C38.8068 50 50 38.8068 50 25C50 11.1932 38.8068 0 25 0ZM17.5159 30.0159C17.0873 30.4299 16.5132 30.659 15.9173 30.6538C15.3214 30.6486 14.7513 30.4096 14.33 29.9882C13.9086 29.5668 13.6696 28.9968 13.6644 28.4009C13.6592 27.805 13.8883 27.2309 14.3023 26.8023L23.3932 17.7114C23.8194 17.2853 24.3974 17.0459 25 17.0459C25.6026 17.0459 26.1806 17.2853 26.6068 17.7114L35.6977 26.8023C36.1117 27.2309 36.3408 27.805 36.3356 28.4009C36.3304 28.9968 36.0914 29.5668 35.67 29.9882C35.2487 30.4096 34.6786 30.6486 34.0827 30.6538C33.4868 30.659 32.9127 30.4299 32.4841 30.0159L25 22.5318L17.5159 30.0159Z" fill="#6CC3C5"/>
</svg>
